<!-- by TradingView --><svg width="18" height="18" viewBox="0 0 18 18" xmlns="http://www.w3.org/2000/svg"><path fill="#FEF200" d="M0 0h18v18H0z"/><circle cx="9" cy="9" r="9" fill="#FFF200"/><path d="M8.78 3.21s0 .07-.02.11c-.02.04-.06.07-.06.1 0 .02.03.05.07.07l.1.05c.04 0 .09.03.1 0 .01-.03 0-.07-.03-.1l-.12-.18-.04-.05Z"/><path d="M8.47 10.4c0-.02.1.04.15.07l.25.17.18.15c.1.08.14.14.17.13.03-.04-.06-.17-.14-.23l-.23-.17-.21-.14-.25-.2-.13-.1-.2-.17-.22-.2-.17-.2-.15-.19a6.68 6.68 0 0 1-.28-.41c-.05-.06-.16-.03-.28-.1-.16-.1-.2-.18-.2-.18V8.6l-.02-.02-.08-.05-.05-.03-.08-.05-.14-.08-.18-.1-.09-.08-.06-.04-.04-.02h-.05s-.03-.01-.06.03c-.04.04-.03.02.03.25.02.09.02.4.04.5.03.12.12.28.13.3l.01.09v.09c.03.16.27.06.32.28.06.22-.03.44-.03.44s-.05.11-.12.13c-.08.02-.19-.14-.27-.27-.08-.13-.15-.3-.17-.35l-.05-.1c-.04-.06-.07-.05-.11-.14-.04-.1 0-.13-.02-.21l-.04-.11-.03-.26-.02-.19-.02-.14-.06-.36V7.97s-.01-.03 0-.07c0-.04.03-.07.03-.07l.04-.08.08-.1.1-.08c.07-.04.13-.03.13-.03l.14.01c.11.01.35.08.41.1.06 0 .13.03.18.06.13.07.17.04.06-.04l-.14-.13-.13-.12a3.7 3.7 0 0 1-.14-.2l-.06-.09-.04-.04-.02-.01h-.09c-.04-.02-.06.04-.06.04s-.1.18-.2.29c-.15.18-.27.3-.32.39-.09.13-.07.27-.11.34-.02.04-.04.04-.05.08-.04.1.1.16.07.27-.05.18-.47.36-.53.33-.06-.03-.01-.28 0-.36a1 1 0 0 1 .1-.2l.02-.05v-.1L5 8.02l.04-.1c.04-.08.18-.27.27-.45l.16-.3.16-.28.07-.11.1-.16c.04-.06.05-.1.1-.15a.3.3 0 0 1 .14-.08c.09-.03.14-.01.23.01.1.03.16.07.22.12l.1.1.03.04.02.01.05.04.13.08.32.22.08.06s.09-.09.24-.2c.19-.12.25-.11.31-.14l.13-.11c.07-.07.07-.1.15-.2.08-.1.16-.16.16-.16l.15-.17c.15-.16.2-.28.2-.28l.09-.16.15-.34.04-.13s0-.03-.03-.08c-.03-.04-.05-.02-.1-.01-.11.02-.18 0-.28-.02-.1-.02-.15-.05-.25-.06-.1-.02-.15-.04-.25-.03L7.86 5l-.11.05a.29.29 0 0 1-.13.03l-.1-.01a.15.15 0 0 1-.08-.06v-.03l.03-.02h.05l.06-.03.1-.03.05-.02s.02-.03.01-.04c0-.02-.04-.02-.04-.02l-.06.02-.08.03-.11.02-.12.02H7.3l-.02-.04-.01-.04c-.01-.06-.03-.1-.01-.16l.02-.07.03-.05.04-.06.07-.1a.29.29 0 0 1 .08-.06.3.3 0 0 1 .13-.04c.06 0 .06 0 .14-.03.09-.02.14-.05.14-.05s.2-.07.32-.13.18-.12.3-.17l.15-.05.01-.02c0-.02-.03-.03-.05-.02-.02 0-.06.02-.07 0 0-.02.04-.03.04-.03l.02-.02c0-.02-.03-.01-.05-.01-.07-.01-.08-.02-.13-.04-.06-.01-.1-.03-.16-.03l-.14.01c-.04.01-.04-.02-.03-.03.1-.04.1-.05.18-.05h.1l.1-.01c.02-.02-.07-.02-.1-.04-.04-.01-.1-.01-.1-.04 0-.02.03 0 .05-.01l.06-.01.12-.02.15.02a8.06 8.06 0 0 0 .25.1s.07.01.12-.02c.06-.03.03-.05 0-.08-.01-.03-.03-.07 0-.14l.05-.15c.01-.01.06.05.08.07.1.09.22.13.34.32.01.01.05-.01.2.01.13.02.25.17.28.2.03.04.07.04.07.04h.07l.24.01s.1-.02.17 0c.05.02.2.12.13.16-.05.02-.1-.04-.14-.04-.05 0-.07 0-.11.02-.1.02-.3.08-.22.1l.01.01h.04l.14.05c.08.03.12.06.19.1.04.03.06.06.1.07h.12l.14.05c.08.04.1.09.18.14.03.02.06.02.09.06l.01.02c0 .03-.05.01-.08 0-.04 0-.05-.02-.09-.03-.04-.02-.07-.05-.12-.06h-.36c-.07-.02-.1-.05-.18-.07-.08-.01-.22-.08-.2-.01 0 .03.08.06.08.06l.1.05c.05.02.07.05.07.05l.04.03.08.1c.04.05.12.05.12.05l.15.02c.1.02.21.08.21.08l.13.11c.04.06.02.09.01.1l-.07-.07-.04-.04s-.04-.03-.1-.04c-.05-.02-.06 0-.06 0l-.21.02c-.1 0-.15-.04-.15-.04l-.06-.04s-.09-.09-.1-.05a3.73 3.73 0 0 0 .09.1l.1.1c.04.04.07.04.07.04h.03l.02.01a6.94 6.94 0 0 0 .22.12h.02l.03.02h.06c.04.01.03.04.03.04l-.04.03h-.07c-.03.01-.07 0-.07 0l-.08-.04-.1-.02a3.99 3.99 0 0 1-.18-.05s-.03 0-.07-.03l-.12-.07c-.06-.01-.1-.02-.14.01-.08.05.11.06.2.1.14.08.22.13.25.2l.07.1s.1.05.14.1l.05.08c.05.06.16.05.18.1.02.06-.09.03-.14.03-.1-.01-.12-.1-.21-.13l-.14-.04c-.1-.03-.14-.07-.23-.1-.06-.02-.16-.1-.15-.04l.02.04.02.03.05.06.16.1c.1.05.17.14.17.14l.04.06.02.08.05.08c.07.06.14.05.22.08.02 0 .02.01.04.04.03.02 0 .03 0 .03s-.1.03-.15.02c-.08 0-.1-.03-.18-.06-.08-.04-.12-.1-.12-.11l-.04-.03-.09-.03-.08-.02-.11-.04c-.03 0-.07-.02-.1 0-.08.05.1.07.16.13l.06.09.06.06.05.02.1.06a.6.6 0 0 1 .14.13l.05.07.02.04.01.02.01.02.06.06.02.02-.02.02h-.05c-.03-.01-.04-.03-.06-.05l-.08-.08-.1-.04-.08-.04-.06-.02s-.08-.05-.13-.06c-.04-.02-.01.01-.01.01s.04.07.08.1c.05.03.12.06.1.09h-.06c-.04 0-.09-.05-.09-.05l-.1-.04c-.1-.02-.06.02-.04.05l.04.04.06.02.03.01.1.03a.3.3 0 0 1 .13.05l.1.08c.06.05.11.06.15.06.03 0 .03.03.03.03v.03l-.01.01h-.02l-.04.02s-.1 0-.16-.02c-.07-.02-.13-.07-.14-.07l-.11-.05a.3.3 0 0 0-.12 0l-.07.01c-.04.01 0 .03 0 .03H10.27s.07.01.13.04c.06.02.1.06.14.1a.5.5 0 0 0 .09.07l.03.02.02.01v.02l-.01.02h-.03l-.08-.04-.1-.04a.28.28 0 0 0-.08 0 1.34 1.34 0 0 1-.3 0c-.1 0-.22-.08-.24-.06-.03.04.07.06.12.08.06.04.17.08.17.08s.09.01.13.04c.11.05.14.12.23.2.04.04.08.05.14.06.06.01.06 0 .14-.01.09-.02.14-.1.17-.07v.02l-.01.02-.03.03a.5.5 0 0 1-.1.06.53.53 0 0 1-.2.03c-.1 0-.23-.07-.23-.07l-.1-.04-.07-.03c-.08-.03-.14-.03-.22-.05l-.13-.04c-.05-.01-.02 0-.01.01.02.03.05.04.08.06l.14.04.13.07.08.08.1.08.03.03s.02.03.01.06c0 .04-.03.01-.03.01l-.03-.01-.03-.03-.04-.03-.1-.07a.45.45 0 0 0-.14-.04l-.06.01c0 .02.02.02.07.04.05.01.09.04.09.04l.1.08.04.1.07.08c.05.05.08.03.08.05 0 .03-.03.03-.03.03h-.02l-.03-.01-.07-.04-.09-.08-.09-.06-.08-.05a1 1 0 0 0-.1-.04l-.07-.01-.1-.02c-.05-.02-.11-.08-.12-.08l-.06-.02c-.01 0-.04.1-.04.15-.02.22.04.37.13.58a3 3 0 0 0 .52.68l.13.09c.11.09.3.21.47.38.14.14.33.4.33.4s.11.14.16.25c.06.13.11.33.11.33l.01.05.02.01h.07l.13-.01.24-.11c.08-.04.17-.12.17-.12l.11-.11c.1-.1.15-.26.17-.31.02-.06.04-.17.06-.35.01-.2-.02-.39-.02-.39l-.05-.37-.07-.24-.05-.22-.01-.23.03-.24c.03-.16.12-.32.12-.32l.13-.17c.11-.13.15-.15.25-.23.08-.06.2-.15.23-.13.04.03-.04.07-.07.1-.06.06-.18.18-.28.35-.1.15-.12.25-.14.35-.03.1-.02.2-.01.24 0 .03.02.02.02.02s.21-.17.32-.3c.13-.13.24-.38.28-.38.03 0 .05.06.04.1-.03.12-.04.14-.08.22-.05.1-.1.14-.16.23-.07.1-.1.13-.16.26-.08.17-.03.31-.03.31s0 .09.05.09c.06 0 .2-.18.29-.33.07-.1.1-.22.14-.29.04-.05.07.1.05.18-.02.1-.07.2-.18.35-.11.14-.1.28-.1.28s-.02.06-.03.2c0 .13.03.34.03.34s.04.17.04.3c.01.13 0 .43-.12.66-.05.1-.15.22-.15.22s-.08.09-.15.14l-.22.12-.13.04c-.02 0-.02.02-.02.02v.03l.04.08s.04.1.05.2c.01.08 0 .1-.01.16-.02.06-.04.04-.05.16 0 .1.04.16.03.28 0 .05-.06-.07-.09-.12-.06-.1-.05-.28-.05-.32a.56.56 0 0 0-.1-.3c-.03-.05-.07-.07-.08-.07v.04c-.01.01.01.05.02.06l.04.08.03.17c0 .11-.03.25-.03.25s-.04.15-.09.24c-.05.1-.17.24-.17.24s-.08.08-.14.2c-.06.12-.01.18-.03.2-.03.01-.08-.08-.09-.14-.01-.05 0-.08.02-.14l.07-.14.07-.13s.1-.17.12-.3c.03-.12 0-.26 0-.26s0-.04-.04-.04c-.03 0-.05.03-.06.06-.03.07 0 .06-.03.17-.03.1-.04.08-.06.13a.59.59 0 0 0-.03.17c0 .04-.02.02-.02.02s-.03-.07-.03-.15v-.13l.04-.19s.04-.12.03-.22c0-.1-.05-.13-.05-.13h-.05c-.04 0-.03.07-.03.07l-.03.17c-.05.18-.1.27-.21.42-.1.14-.23.26-.3.31-.06.06-.26.2-.26.2l-.24.16s-.1.1-.13.2c-.05.1-.05.2-.02.3.02.1.06.14.08.17.02.02.05.07.07.13V13.23c0 .05.01.09-.02.13-.02.03-.07.05-.07.05s-.07.03-.1.06c-.4.24-.55.4-.77.66-.07.09-.02.08-.1.18-.04.06-.15.06-.19.13-.05.1.12.2-.08.29-.26.11-.71.03-.72 0-.03-.1.09-.21.13-.26.18-.2.34-.2.4-.37.02-.03.01-.06.16-.17.1-.07.5-.38.69-.58.06-.07.1-.12.14-.2.02-.07-.03-.12-.03-.12l-.07-.12-.14-.25-.1-.21a4 4 0 0 1-.09-.28l-.05-.31c-.02-.22.01-.34.07-.55.08-.28.24-.4.31-.66.02-.08.03-.22-.01-.21-.04 0-.05.11-.08.18-.1.27-.25.39-.33.67-.05.19-.07.3-.07.5 0 .1 0 .09.03.28 0 .07.02.11.05.18l.05.14.08.21v.08c0 .05.01.06-.01.1-.03.06-.01.1-.11.12-.09.02-.27-.04-.27-.04s-.74-.22-1.2-.16c-.1.01-.15.05-.25.05-.08 0-.12-.07-.21-.05-.02 0-.02.02-.04.03-.12.09-.03.23-.36.16-.2-.05-.44-.17-.4-.25.06-.1.13-.12.3-.18.16-.07.42-.05.47-.06.06 0 .15-.04.26-.05.19 0 .22.02.22.02l.33.03h.77c.04-.02.08-.1.1-.15.03-.04 0-.1 0-.1L9 12.12l-.05-.1-.11-.17-.12-.24-.13-.28-.09-.28a1.5 1.5 0 0 1-.05-.3c0-.14-.01-.25.02-.36Z"/><path d="M12.5 10.17c.12-.16.13-.32.14-.54 0-.16-.05-.4-.05-.4l-.01-.02s-.02-.03-.04.01v.06l.02.32s-.01.16-.07.32c-.09.28-.33.4-.37.5-.06.16.21-.05.37-.25ZM11.13 10.68s-.06.02-.06.07l.01.16c0 .08-.07.17-.02.2.08.05.15-.31.12-.37-.02-.05-.05-.06-.05-.06ZM9.08 14s-.01-.02-.04 0a.2.2 0 0 0-.05.04c0 .01-.02.03 0 .04 0 .02.03 0 .04 0l.04-.04s.03-.01.01-.05ZM8.59 14.5s-.02-.05-.05-.03c-.03.02-.04.02-.07.06l-.03.05s-.04.06.02.06c.1 0 .03-.06.07-.08.02-.02.07-.01.07-.03l-.01-.04ZM6.9 12.5l-.06.03c0 .03.03.04.04.05 0 0 .02.01.05-.01.04-.03.04-.05.04-.05s.02-.03-.07-.02ZM7.94 6.92s-.03.02-.02.04c.01.03.06.01.06.01s.1-.04.2-.04a1.2 1.2 0 0 1 .32.05l.05.02s.04.02.06 0c.02-.01-.12-.14-.27-.16-.24-.03-.4.07-.4.07ZM6.39 7.1s-.02.06.05.13c.07.08.09.14.13.1.01-.02-.04-.12-.07-.15l-.05-.05-.02-.01-.02-.01h-.02V7.1ZM4.96 8.51c-.04-.01-.04.06-.05.09l.03.07.04-.07c0-.02.02-.08-.02-.09ZM6.2 9.98s-.06-.05-.07-.03c-.01.02.05.12.05.12s.02.03.06.01c.03-.01.02-.04.02-.04l-.05-.06ZM5.69 8.39s-.02 0-.03.02V8.62s0 .07.02.11l.06.11s.01.03.03.03c.02 0 .01-.02.01-.02l-.06-.25V8.4s0-.02-.03-.02ZM8.68 10.07c.02.06-.23-.13-.36-.24-.36-.27-.8-.83-.74-.88.04-.04.22.21.49.5.28.3.6.58.61.62ZM9.74 9.8c-.08.08-.11.19-.07.27.05.08.06-.11.11-.17.04-.05.07-.04.14-.09.12-.08-.09-.11-.18 0ZM9.29 8.03c-.06-.01-.05.07-.05.13.04.26.16.45.31.64.1.12.35.32.38.29.01-.02-.24-.21-.4-.47a1.1 1.1 0 0 1-.2-.48c0-.02 0-.1-.04-.11ZM8.29 4.2c-.12.07-.32.13-.32.13s-.01.02.01.01a.86.86 0 0 0 .34-.07c.09-.04.16-.15.16-.15s.03-.07-.04-.01l-.15.1ZM9.7 3.77s-.05-.01-.07 0c-.03.02-.02.03-.02.03l.07.04c.03 0 .1.03.09.01 0-.02-.04-.06-.05-.07l-.03-.01ZM9.03 4.98s.13-.02.17-.05c.04-.02.05-.09.05-.09V4.8c-.07.11-.23.16-.22.18ZM9.03 4.67c.04-.09-.13.1-.22.15l-.15.06s-.02.03 0 .03c.04 0 .13.03.2-.03l.08-.11s.06-.05.09-.1ZM9 5.06c0 .02.2.01.25 0 .04-.01.07-.08.07-.08s.02-.07 0-.04c-.1.09-.32.1-.32.12ZM5.78 6.9s-.03-.02-.07.04c-.04.05-.2.3-.17.35.03.04.18-.23.22-.28.05-.06.03-.1.03-.1l-.01-.02ZM9.46 11.5c-.02.08 0 .25.03.29.07.08.03-.14.04-.22 0-.07.01-.1.05-.17.06-.14-.09-.09-.12.1ZM8.84 4.12s-.06 0-.1.02a.11.11 0 0 0-.05.06v.04c0 .03.07-.02.1 0 .04 0 .06.02.08.05.03.03.07.07.1.04.02-.02 0-.07 0-.07s-.02-.1-.06-.12c-.04-.03-.07-.02-.07-.02ZM7.92 4.75s-.04 0-.03.04c0 .04.03.03.03.03s.06-.02.06-.06c0-.04-.06 0-.06 0ZM7.46 4.55s-.03 0-.05.04c-.03.04-.04.09-.04.09s-.01.05 0 .07c.03.02.05-.04.08-.06.02 0 .03-.01.04-.03.03-.01.07 0 .06-.04 0-.05-.05-.07-.09-.07ZM9.78 4.33l-.02.06s-.02.09.07.05l.1-.04c.06-.03.06-.02.1-.02h.05c.02 0 .01-.03-.03-.04h-.17c-.04 0-.09-.05-.1 0ZM9.82 4.02l-.07.01c-.03.02-.02.03-.02.03l.07.04c.03 0 .1.03.1 0l-.06-.06a.07.07 0 0 0-.02-.02ZM9.97 4.6s-.04 0-.07.02c-.03.01-.02.03-.02.03l.07.03c.03 0 .1.03.1 0l-.06-.06-.02-.01ZM9.94 6.01l-.07.01c-.03.02-.02.03-.02.03l.07.04c.03 0 .1.03.1 0l-.06-.06L9.94 6ZM5.07 7.97s-.04.07-.02.1c.02.04.07-.05.07-.05s.05-.1.03-.12c-.02-.01-.04.04-.08.07Z" fill="#fff"/></svg>