<!-- by TradingView --><svg width="18" height="18" xmlns="http://www.w3.org/2000/svg"><path fill="#C26A44" d="M0 0h18v18H0z"/><path d="M5.68 7H4v.226c0 1.2.862 2.198 2.001 2.408.079.96.45 1.812.999 2.419V13a1 1 0 001 1h2a1 1 0 001-1v-.947c.55-.607.92-1.46.999-2.42A2.45 2.45 0 0014 7.227V7h-1.655a2.018 2.018 0 00-.025-3 2.022 2.022 0 01-1.146 1.945c-.593-.292-1.35-.468-2.174-.468-.82 0-1.572.173-2.163.463A2.002 2.002 0 015.672 4 1.997 1.997 0 005 5.496c0 .6.263 1.137.68 1.504z" fill="#fff"/></svg>